<?xml version="1.0" encoding="UTF-8"?>
<svg viewBox="0 0 115 28" xmlns="http://www.w3.org/2000/svg">
<path d="m6.1172 17.059c-0.28125 0.293-0.54492 0.5566-0.79102 0.791-0.23437 0.2227-0.46875 0.4395-0.70312 0.6504-0.22266 0.2109-0.45703 0.4277-0.70313 0.6504-0.23437 0.2109-0.49804 0.4512-0.79101 0.7207-0.10547 0.1055-0.22266 0.1934-0.35157 0.2637-0.11718 0.0586-0.24609 0.0879-0.38672 0.0879-0.1289 0-0.29296-0.0352-0.49218-0.1055-0.19922-0.082-0.39258-0.1817-0.58008-0.2988-0.17578-0.1172-0.32813-0.2461-0.45703-0.3868-0.12891-0.1523-0.19336-0.2988-0.19336-0.4394 0-0.1289 0.023437-0.2285 0.070312-0.2988 0.058594-0.0821 0.11719-0.17 0.17578-0.2637 0.046876-0.0469 0.13477-0.1231 0.26367-0.2285 0.14063-0.1172 0.30469-0.2461 0.49219-0.3867 0.1875-0.1524 0.38672-0.3106 0.59766-0.4747 0.22265-0.1757 0.44531-0.3515 0.66797-0.5273 0.51562-0.3867 1.084-0.8203 1.7051-1.3008-0.59765-0.2109-1.1426-0.416-1.6348-0.6152-0.21094-0.082-0.42188-0.1641-0.63281-0.2461-0.19922-0.0938-0.38672-0.1758-0.5625-0.2461-0.17578-0.082-0.32813-0.1523-0.45703-0.2109-0.12891-0.0704-0.2168-0.1231-0.26368-0.1582-0.17578-0.1289-0.31054-0.2579-0.40429-0.3868-0.082031-0.1406-0.12305-0.3164-0.12305-0.5273 0-0.1172 0.023438-0.2695 0.070312-0.457 0.046876-0.1875 0.11133-0.3692 0.19336-0.545 0.09375-0.1875 0.19922-0.3457 0.31641-0.4746 0.1289-0.1406 0.26367-0.2109 0.4043-0.2109 0.15234 0 0.41015 0.0996 0.77343 0.2988 0.36328 0.1875 0.73242 0.3985 1.1074 0.6328 0.44532 0.2813 0.91993 0.5918 1.4238 0.9317-0.04687-0.5039-0.08789-0.9903-0.12304-1.459-0.03516-0.4102-0.06446-0.8262-0.0879-1.2481-0.02343-0.4336-0.03515-0.79683-0.03515-1.0898 0-0.23437 0.04687-0.41602 0.14062-0.54492 0.10547-0.12891 0.28125-0.19336 0.52735-0.19336 0.19922 0 0.41015 0.01758 0.63281 0.05273 0.23437 0.03516 0.44531 0.09961 0.63281 0.19336 0.19922 0.09375 0.35742 0.22266 0.47461 0.38672 0.12891 0.15235 0.19336 0.35156 0.19336 0.59766 0 0.26951-0.00586 0.60351-0.01758 1.0019v1.1426c-0.01172 0.4336-0.01757 0.8789-0.01757 1.336 0.5625-0.4571 1.084-0.8614 1.5644-1.2129 0.19922-0.1524 0.39844-0.2989 0.59765-0.4395 0.21094-0.1406 0.4043-0.2637 0.58008-0.3691 0.18754-0.1172 0.34574-0.2051 0.47464-0.2637 0.1406-0.0703 0.2402-0.1055 0.2988-0.1055 0.1406 0 0.2695 0.0703 0.3867 0.211 0.1172 0.1289 0.2168 0.2871 0.2988 0.4746 0.0938 0.1758 0.1641 0.3574 0.211 0.5449 0.0586 0.1875 0.0879 0.3398 0.0879 0.457 0 0.3985-0.1758 0.7032-0.5274 0.9141-0.0586 0.0352-0.1582 0.0937-0.2988 0.1758-0.1289 0.0703-0.2812 0.1523-0.457 0.2461-0.1758 0.0937-0.3692 0.1933-0.58011 0.2988-0.21093 0.1055-0.42187 0.2109-0.63281 0.3164-0.49219 0.2461-1.0312 0.5098-1.6172 0.791 0.63282 0.4805 1.207 0.9141 1.7227 1.3008 0.22266 0.1758 0.43945 0.3516 0.65039 0.5273 0.22266 0.1641 0.42186 0.3223 0.59766 0.4747 0.1875 0.1406 0.3457 0.2695 0.4746 0.3867 0.1406 0.1054 0.2344 0.1816 0.2813 0.2285 0.0703 0.0937 0.1347 0.1816 0.1933 0.2637 0.0586 0.0703 0.0879 0.1699 0.0879 0.2988 0 0.1406-0.0703 0.2871-0.2109 0.4394-0.1289 0.1407-0.2871 0.2696-0.4746 0.3868-0.1758 0.1171-0.3633 0.2168-0.5625 0.2988-0.1993 0.0703-0.35746 0.1055-0.47465 0.1055-0.16406 0-0.31055-0.0293-0.43945-0.0879-0.11719-0.0703-0.22852-0.1582-0.33399-0.2637-0.29297-0.2695-0.5625-0.5098-0.80859-0.7207-0.23438-0.2227-0.46875-0.4395-0.70313-0.6504-0.22265-0.2109-0.45117-0.4277-0.68554-0.6504-0.23438-0.2344-0.48633-0.498-0.75586-0.791z" fill="white"/>
<path d="m109.12 17.059c-0.281 0.293-0.545 0.5566-0.791 0.791-0.234 0.2227-0.469 0.4395-0.703 0.6504-0.223 0.2109-0.457 0.4277-0.703 0.6504-0.234 0.2109-0.498 0.4512-0.791 0.7207-0.106 0.1055-0.223 0.1934-0.352 0.2637-0.117 0.0586-0.246 0.0879-0.386 0.0879-0.129 0-0.293-0.0352-0.493-0.1055-0.199-0.082-0.392-0.1817-0.58-0.2988-0.175-0.1172-0.328-0.2461-0.457-0.3868-0.129-0.1523-0.193-0.2988-0.193-0.4394 0-0.1289 0.023-0.2285 0.07-0.2988 0.059-0.0821 0.117-0.17 0.176-0.2637 0.047-0.0469 0.135-0.1231 0.264-0.2285 0.14-0.1172 0.304-0.2461 0.492-0.3867 0.187-0.1524 0.387-0.3106 0.598-0.4747 0.222-0.1757 0.445-0.3515 0.668-0.5273 0.515-0.3867 1.084-0.8203 1.705-1.3008-0.598-0.2109-1.143-0.416-1.635-0.6152-0.211-0.082-0.422-0.1641-0.633-0.2461-0.199-0.0938-0.387-0.1758-0.562-0.2461-0.176-0.082-0.329-0.1523-0.457-0.2109-0.129-0.0704-0.217-0.1231-0.264-0.1582-0.176-0.1289-0.311-0.2579-0.404-0.3868-0.082-0.1406-0.124-0.3164-0.124-0.5273 0-0.1172 0.024-0.2695 0.071-0.457s0.111-0.3692 0.193-0.545c0.094-0.1875 0.199-0.3457 0.317-0.4746 0.128-0.1406 0.263-0.2109 0.404-0.2109 0.152 0 0.41 0.0996 0.773 0.2988 0.364 0.1875 0.733 0.3985 1.108 0.6328 0.445 0.2813 0.92 0.5918 1.424 0.9317-0.047-0.5039-0.088-0.9903-0.123-1.459-0.036-0.4102-0.065-0.8262-0.088-1.2481-0.024-0.4336-0.036-0.79683-0.036-1.0898 0-0.23437 0.047-0.41602 0.141-0.54492 0.106-0.12891 0.281-0.19336 0.527-0.19336 0.2 0 0.411 0.01758 0.633 0.05273 0.235 0.03516 0.446 0.09961 0.633 0.19336 0.199 0.09375 0.357 0.22266 0.475 0.38672 0.129 0.15235 0.193 0.35156 0.193 0.59766 0 0.26951-6e-3 0.60351-0.018 1.0019v1.1426c-0.011 0.4336-0.017 0.8789-0.017 1.336 0.562-0.4571 1.084-0.8614 1.564-1.2129 0.2-0.1524 0.399-0.2989 0.598-0.4395 0.211-0.1406 0.404-0.2637 0.58-0.3691 0.188-0.1172 0.346-0.2051 0.475-0.2637 0.14-0.0703 0.24-0.1055 0.299-0.1055 0.14 0 0.269 0.0703 0.386 0.211 0.117 0.1289 0.217 0.2871 0.299 0.4746 0.094 0.1758 0.164 0.3574 0.211 0.5449 0.059 0.1875 0.088 0.3398 0.088 0.457 0 0.3985-0.176 0.7032-0.527 0.9141-0.059 0.0352-0.159 0.0937-0.299 0.1758-0.129 0.0703-0.282 0.1523-0.457 0.2461-0.176 0.0937-0.369 0.1933-0.58 0.2988s-0.422 0.2109-0.633 0.3164c-0.492 0.2461-1.031 0.5098-1.617 0.791 0.632 0.4805 1.207 0.9141 1.722 1.3008 0.223 0.1758 0.44 0.3516 0.651 0.5273 0.222 0.1641 0.422 0.3223 0.597 0.4747 0.188 0.1406 0.346 0.2695 0.475 0.3867 0.141 0.1054 0.234 0.1816 0.281 0.2285 0.07 0.0937 0.135 0.1816 0.194 0.2637 0.058 0.0703 0.087 0.1699 0.087 0.2988 0 0.1406-0.07 0.2871-0.211 0.4394-0.128 0.1407-0.287 0.2696-0.474 0.3868-0.176 0.1171-0.363 0.2168-0.563 0.2988-0.199 0.0703-0.357 0.1055-0.474 0.1055-0.164 0-0.311-0.0293-0.44-0.0879-0.117-0.0703-0.228-0.1582-0.334-0.2637-0.293-0.2695-0.562-0.5098-0.808-0.7207-0.235-0.2227-0.469-0.4395-0.703-0.6504-0.223-0.2109-0.452-0.4277-0.686-0.6504-0.234-0.2344-0.486-0.498-0.756-0.791z" fill="white"/>
<path d="m23.248 1.793c0 0.24609-0.0761 0.69726-0.2285 1.3535-0.1523 0.64454-0.3457 1.4004-0.58 2.2676-0.2344 0.85547-0.4981 1.7695-0.7911 2.7422-0.2929 0.96094-0.58 1.8868-0.8613 2.7774-0.2812 0.8789-0.5391 1.6641-0.7734 2.3555-0.2344 0.6914-0.4102 1.1953-0.5274 1.5117 0.1289 1.043 0.2168 2.0801 0.2637 3.1113 0.0469 1.0313 0.0996 2.0684 0.1582 3.1113 0.0586 0.8789 0.1113 1.7637 0.1582 2.6543 0.0586 0.8907 0.0879 1.7754 0.0879 2.6543 0 0.2696-0.0703 0.4805-0.2109 0.6328-0.1289 0.1407-0.3282 0.211-0.5977 0.211-0.1055 0-0.2461-0.0176-0.4219-0.0528-0.1758-0.0234-0.3574-0.0644-0.5449-0.123-0.1758-0.0469-0.3457-0.1055-0.5098-0.1758-0.1523-0.0703-0.2578-0.1406-0.3164-0.2109-0.1406-0.1641-0.2285-0.3164-0.2636-0.4571-0.0352-0.1523-0.0528-0.3281-0.0528-0.5273 0-1.8164-0.0175-3.6211-0.0527-5.4141-0.0352-1.7929-0.0527-3.5976-0.0527-5.414l-0.1407-0.1406c-0.0703-0.1055-0.1523-0.252-0.2461-0.4395-0.082-0.1992-0.1699-0.4043-0.2636-0.6152-0.0821-0.211-0.1582-0.416-0.2285-0.6153-0.0704-0.1992-0.129-0.3574-0.1758-0.4746-0.3867-1.0781-0.75-2.1562-1.0899-3.2344-0.3398-1.0781-0.7031-2.1562-1.0898-3.2344-0.0586-0.18751-0.1524-0.43946-0.2813-0.75586-0.1289-0.32813-0.2578-0.66797-0.3867-1.0195-0.1289-0.35156-0.2402-0.67968-0.334-0.98437-0.1054-0.31641-0.1582-0.55664-0.1582-0.7207 0-0.12891 0.0352-0.23438 0.1055-0.31641s0.1582-0.14062 0.2637-0.17578c0.1054-0.04688 0.2168-0.07617 0.334-0.08789 0.1171-0.01172 0.2226-0.01758 0.3164-0.01758 0.3046 0 0.5859 0.01758 0.8437 0.05273 0.2695 0.02344 0.5391 0.12305 0.8086 0.29883 0.0703 0.04688 0.1816 0.26367 0.334 0.65039 0.1523 0.38672 0.3223 0.86719 0.5098 1.4414s0.3808 1.1953 0.58 1.8633c0.211 0.66797 0.4043 1.3125 0.5801 1.9336 0.1758 0.6211 0.334 1.1719 0.4746 1.6524s0.2403 0.81447 0.2988 1.002c0.3868-1.5 0.7735-2.9883 1.1602-4.4649 0.3984-1.4766 0.7383-2.9766 1.0195-4.5 0.0235-0.14063 0.0469-0.29297 0.0703-0.45703 0.0352-0.17579 0.0762-0.33399 0.1231-0.47461 0.0586-0.14062 0.1406-0.25781 0.2461-0.35156 0.1055-0.10547 0.2519-0.1582 0.4394-0.1582 0.1524 0 0.3399 0.035157 0.5625 0.10547 0.2344 0.070312 0.4571 0.16992 0.668 0.29883 0.2109 0.11719 0.3926 0.25781 0.5449 0.42187 0.1524 0.15235 0.2285 0.32227 0.2285 0.50977zm12.586 11.707c0 0.4922-0.0117 1.0664-0.0352 1.7227-0.0117 0.6445-0.0527 1.3359-0.123 2.0742-0.0586 0.7383-0.1524 1.4941-0.2813 2.2676-0.1172 0.7734-0.2754 1.5293-0.4746 2.2675-0.1992 0.7383-0.4453 1.4356-0.7383 2.0918-0.2929 0.6563-0.6445 1.2305-1.0546 1.7227-0.4102 0.4922-0.8848 0.8847-1.4239 1.1777-0.539 0.2813-1.1543 0.4219-1.8457 0.4219s-1.3183-0.1582-1.8808-0.4746c-0.5625-0.3281-1.0371-0.7559-1.4239-1.2832-0.3164-0.4219-0.5976-0.9375-0.8437-1.5469-0.2344-0.6211-0.4453-1.2949-0.6328-2.0215-0.1758-0.7265-0.3282-1.4824-0.4571-2.2676-0.1289-0.7851-0.2343-1.5585-0.3164-2.3203-0.0703-0.7617-0.123-1.4824-0.1582-2.1621-0.0351-0.6914-0.0527-1.2949-0.0527-1.8105 0-0.8672 0.0352-1.7754 0.1055-2.7246 0.082-0.94925 0.2285-1.8868 0.4394-2.8125 0.211-0.9375 0.4981-1.8398 0.8613-2.707 0.3633-0.86718 0.8321-1.6465 1.4063-2.3379 0.0586-0.07031 0.1289-0.15234 0.2109-0.24609 0.0938-0.09375 0.1934-0.18164 0.2989-0.26367 0.1054-0.09375 0.2109-0.16992 0.3164-0.22852 0.1172-0.07031 0.2285-0.10547 0.334-0.10547 0.1054 0 0.205 0.0293 0.2988 0.08789 0.1055 0.0586 0.1933 0.13477 0.2637 0.22852 0.246-0.14062 0.5039-0.24023 0.7734-0.29883 0.2812-0.05859 0.5625-0.08789 0.8437-0.08789 0.8555 0 1.5879 0.20508 2.1973 0.61524 0.6211 0.39843 1.1367 0.92578 1.5469 1.582 0.4101 0.65625 0.7383 1.4004 0.9844 2.2324s0.4335 1.6816 0.5625 2.5488c0.1289 0.86718 0.2109 1.7051 0.246 2.5137 0.0352 0.8086 0.0528 1.5234 0.0528 2.1445zm-2.7422 0.7734c0-0.3046-0.0117-0.7675-0.0352-1.3886-0.0117-0.6328-0.0527-1.3243-0.123-2.0743-0.0703-0.7617-0.1699-1.541-0.2988-2.3378-0.1172-0.79688-0.2813-1.5176-0.4922-2.1621-0.211-0.65625-0.4746-1.1895-0.791-1.5996-0.3047-0.42188-0.6739-0.63282-1.1075-0.63282-0.1757 0-0.3339 0.08204-0.4746 0.2461-0.1406 0.16406-0.2754 0.375-0.4043 0.63281s-0.2461 0.53906-0.3515 0.84375c-0.1055 0.30469-0.211 0.59766-0.3164 0.87891-0.1055 0.28125-0.2051 0.5332-0.2989 0.75586-0.0937 0.22265-0.1933 0.38086-0.2988 0.47461-0.0351 0.03515-0.0937 0.05859-0.1758 0.07031h-0.2109c-0.1992 0-0.3867-0.03516-0.5625-0.10547-0.1992 0.79687-0.3399 1.5938-0.4219 2.3906-0.0703 0.7852-0.1055 1.5821-0.1055 2.3906 0 0.2461 0.0118 0.6153 0.0352 1.1075s0.0586 1.0547 0.1055 1.6875c0.0468 0.6328 0.1113 1.3125 0.1933 2.039 0.0821 0.7266 0.1817 1.4532 0.2989 2.1797 0.1171 0.7149 0.2519 1.4063 0.4043 2.0742 0.164 0.6563 0.3515 1.2422 0.5625 1.7579 0.2109 0.5039 0.4453 0.9082 0.7031 1.2128 0.2578 0.3047 0.5449 0.4571 0.8613 0.4571 0.1758 0 0.334-0.0469 0.4746-0.1407 0.1406-0.1054 0.2754-0.2109 0.4043-0.3164 0.3516-0.3164 0.6563-0.7324 0.9141-1.248s0.4746-1.084 0.6504-1.7051c0.1757-0.6211 0.3222-1.2715 0.4394-1.9512 0.1172-0.6914 0.2051-1.371 0.2637-2.039s0.0996-1.3008 0.123-1.8985c0.0235-0.6093 0.0352-1.1425 0.0352-1.5996zm15.152 10.195c0 0.3398-0.0879 0.6621-0.2636 0.9667-0.1758 0.293-0.416 0.5098-0.7207 0.6504-0.0938 0.0469-0.3223 0.0938-0.6856 0.1407-0.3633 0.0351-0.7558 0.0703-1.1777 0.1054-0.4219 0.0352-0.8262 0.0703-1.2129 0.1055-0.375 0.0352-0.6387 0.0586-0.791 0.0703-0.0352 0.1992-0.1289 0.3399-0.2813 0.4219-0.1523 0.0703-0.3164 0.1055-0.4922 0.1055-0.1992 0-0.4277-0.0293-0.6855-0.0879s-0.4863-0.1231-0.6856-0.1934c-0.5273 0.0703-1.0605 0.1465-1.5996 0.2285-0.539 0.0821-1.0839 0.1231-1.6347 0.1231-0.4219 0-0.6328-0.1993-0.6328-0.5977s0.1113-0.7031 0.3339-0.914c0.2227-0.211 0.4922-0.3692 0.8086-0.4747 0.3164-0.1054 0.6563-0.1757 1.0196-0.2109 0.3632-0.0352 0.6855-0.0762 0.9668-0.123-0.0586-3.3282-0.1231-6.6329-0.1934-9.9141-0.0586-3.2813-0.0879-6.5859-0.0879-9.9141-0.4805 0.03516-0.9492 0.07031-1.4062 0.10547-0.4571 0.02344-0.9141 0.03516-1.3711 0.03516h-0.2989c-0.1054-0.01172-0.205-0.0293-0.2988-0.05274-0.082-0.03515-0.1523-0.08203-0.2109-0.14062-0.0703-0.07032-0.1055-0.16993-0.1055-0.29883 0-0.22266 0.0469-0.41602 0.1406-0.58008 0.0938-0.17578 0.2168-0.31641 0.3692-0.42187 0.164-0.11719 0.3398-0.21094 0.5273-0.28125 0.1875-0.07032 0.3809-0.12305 0.5801-0.15821 0.5039-0.09375 1.0137-0.16992 1.5293-0.22851 0.5273-0.07032 1.0488-0.13477 1.5644-0.19336 0.5274-0.07031 1.0489-0.14063 1.5645-0.21094 0.5273-0.07031 1.0488-0.16406 1.5645-0.28125 0.4921-0.10547 0.9843-0.24023 1.4765-0.4043 0.4922-0.17578 0.9961-0.26367 1.5117-0.26367 0.2813 0 0.4688 0.10547 0.5625 0.31641 0.0938 0.19922 0.1407 0.42187 0.1407 0.66797 0 0.19921-0.0235 0.39257-0.0704 0.58007-0.0351 0.17579-0.1171 0.34571-0.246 0.50977-0.0704 0.09375-0.2286 0.1875-0.4747 0.28125-0.2343 0.08203-0.5214 0.1582-0.8613 0.22852-0.3281 0.07031-0.6855 0.14062-1.0722 0.21093-0.375 0.0586-0.7442 0.11719-1.1075 0.17578-0.3515 0.04688-0.6738 0.08789-0.9668 0.12305-0.2929 0.03516-0.5097 0.05859-0.6504 0.07031 0.1289 1.6289 0.2168 3.2578 0.2637 4.8867 0.0586 1.6289 0.1055 3.2578 0.1406 4.8867 0.0352 1.6289 0.0704 3.2578 0.1055 4.8867 0.0352 1.629 0.0996 3.2579 0.1934 4.8868 0.6679-0.1055 1.3418-0.2051 2.0215-0.2989 0.6796-0.1054 1.3652-0.1582 2.0566-0.1582 0.1992 0 0.3867 0.0469 0.5625 0.1407 0.1875 0.082 0.2812 0.2461 0.2812 0.4922zm12.533 1.0898c0 0.2109-0.0234 0.4219-0.0703 0.6328-0.0351 0.1992-0.1054 0.3809-0.2109 0.5449-0.0938 0.1524-0.2227 0.2754-0.3867 0.3692-0.1641 0.0937-0.375 0.1406-0.6328 0.1406-0.3164 0-0.5743-0.0703-0.7735-0.2109-0.1875-0.129-0.3633-0.3164-0.5273-0.5625-0.2227-0.3165-0.4219-0.6797-0.5977-1.0899-0.1758-0.4219-0.334-0.8496-0.4746-1.2832-0.1406-0.4453-0.2754-0.8848-0.4043-1.3184-0.1172-0.4453-0.2344-0.8554-0.3515-1.2304-0.6329-1.9688-1.2247-3.9317-1.7754-5.8887-0.5391-1.957-1.1192-3.9199-1.7403-5.8887-0.0586 2.543-0.1054 5.0743-0.1406 7.5938-0.0234 2.5195-0.0352 5.0508-0.0352 7.5937 0 0.1289-0.0058 0.2754-0.0175 0.4395s-0.041 0.3223-0.0879 0.4746c-0.0469 0.1406-0.1231 0.2637-0.2285 0.3691-0.0938 0.1055-0.2285 0.1582-0.4043 0.1582-0.5977 0-1.0547-0.1582-1.3711-0.4746-0.3047-0.3281-0.4571-0.791-0.4571-1.3886 0-3.293 0.0059-6.5567 0.0176-9.7911 0.0117-3.2343 0.0176-6.4863 0.0176-9.7558v-2.4961c0-0.26953 0.0469-0.49218 0.1406-0.66797 0.1055-0.1875 0.3282-0.28124 0.668-0.28124 0.2344 0 0.4746 0.03515 0.7207 0.10546 0.2461 0.0586 0.4629 0.15235 0.6504 0.28125 0.1992 0.12891 0.3574 0.29883 0.4746 0.50977 0.1289 0.19922 0.1934 0.43945 0.1934 0.7207 0.4921 0.9375 0.9023 1.9043 1.2304 2.9004 0.3399 0.9961 0.668 1.998 0.9844 3.0059 0.457 1.4649 0.9082 2.9297 1.3535 4.3945 0.4453 1.4649 0.8965 2.9414 1.3535 4.4297-0.0703-2.2148-0.1465-4.4238-0.2285-6.6269-0.0703-2.2149-0.2168-4.4238-0.4394-6.627-0.0586-0.48046-0.1289-0.94921-0.211-1.4062-0.0703-0.45704-0.1054-0.92579-0.1054-1.4063 0-0.24609 0.082-0.41015 0.246-0.49218 0.1641-0.09375 0.3516-0.14063 0.5626-0.14063 0.3632 0 0.6738 0.0293 0.9316 0.08789 0.2578 0.0586 0.4746 0.15821 0.6504 0.29883 0.1758 0.14063 0.3105 0.33399 0.4043 0.58008 0.0937 0.23437 0.1699 0.5332 0.2285 0.89648 0.0703 0.63282 0.123 1.2715 0.1582 1.916 0.0469 0.63281 0.0879 1.2598 0.123 1.8809 0.1055 1.5703 0.1817 3.1289 0.2286 4.6757 0.0468 1.5469 0.0878 3.1055 0.123 4.6758 0.0352 1.5586 0.0762 3.1172 0.1231 4.6758 0.0585 1.5469 0.0878 3.1055 0.0878 4.6758zm15.275 1.1602c0 0.164-0.0761 0.3046-0.2285 0.4218-0.1523 0.1172-0.334 0.211-0.5449 0.2813s-0.4277 0.123-0.6504 0.1582c-0.2109 0.0351-0.3809 0.0527-0.5098 0.0527-0.0351 0-0.0644 0.0059-0.0879 0.0176-0.0234 0.0117-0.0527 0.0058-0.0878-0.0176-0.2344-0.0469-0.4395-0.1289-0.6153-0.2461-0.1758-0.1055-0.334-0.2344-0.4746-0.3867-0.1406-0.1406-0.2754-0.2988-0.4043-0.4746s-0.2637-0.3574-0.4043-0.5449c-0.9375-1.1836-1.8222-2.3965-2.6543-3.6387-0.8203-1.2539-1.5644-2.5723-2.2324-3.9551l-0.2109 0.2461v6.7852c0 0.1289-0.0059 0.2754-0.0176 0.4394-0.0117 0.1524-0.041 0.2988-0.0879 0.4395-0.0469 0.1406-0.1172 0.2578-0.2109 0.3515-0.0938 0.0938-0.2227 0.1407-0.3868 0.1407-0.375 0-0.6855-0.0586-0.9316-0.1758-0.2344-0.1172-0.4219-0.2754-0.5625-0.4746-0.1289-0.211-0.2168-0.4571-0.2637-0.7383-0.0468-0.2813-0.0703-0.5918-0.0703-0.9316 0-1.1016-0.0117-2.1973-0.0351-3.2872-0.0235-1.0898-0.0352-2.1855-0.0352-3.2871 0-0.4804 0.0176-0.9492 0.0527-1.4062 0.0352-0.4571 0.0528-0.9258 0.0528-1.4063 0-1.6758-0.0645-3.3398-0.1934-4.9922-0.1289-1.664-0.2637-3.3281-0.4043-4.9921-0.0351-0.38672-0.0762-0.77344-0.123-1.1602-0.0352-0.38672-0.0528-0.77344-0.0528-1.1602 0-0.28125 0.0938-0.46875 0.2813-0.5625s0.3867-0.14062 0.5976-0.14062c0.6563 0 1.1719 0.13476 1.5469 0.4043 0.375 0.26953 0.5625 0.75586 0.5625 1.459 0 1.0664 0.0352 2.1094 0.1055 3.1289 0.0586 1.2773 0.0937 2.543 0.1055 3.7969 0.0234 1.2539 0.0468 2.5195 0.0703 3.7969 1.2656-1.5821 2.2617-3.2813 2.9882-5.0977 0.7266-1.8281 1.2774-3.7383 1.6524-5.7305 0.0117-0.11719 0.0293-0.26367 0.0527-0.43945 0.0352-0.17578 0.0762-0.34571 0.1231-0.50977 0.0586-0.17578 0.1347-0.32226 0.2285-0.43945 0.1055-0.12891 0.2402-0.19336 0.4043-0.19336 0.1875 0 0.3808 0.03516 0.5801 0.10547 0.1992 0.05859 0.375 0.14648 0.5273 0.26367 0.1641 0.11719 0.293 0.25781 0.3867 0.42188 0.1055 0.16406 0.1582 0.3457 0.1582 0.54492 0 0.51562-0.0644 1.0137-0.1933 1.4941-0.1172 0.48047-0.2403 0.9668-0.3692 1.459-0.2461 0.9961-0.5097 1.916-0.791 2.7598-0.2695 0.84377-0.5859 1.6582-0.9492 2.4434-0.3516 0.7734-0.7617 1.541-1.2305 2.3027-0.4687 0.75-1.0254 1.5293-1.6699 2.3379l0.7383 1.4766c0.6211 1.1836 1.3125 2.3379 2.0742 3.4629 0.7617 1.1132 1.5938 2.1738 2.4961 3.1816 0.3047 0.3399 0.6152 0.6563 0.9316 0.9492 0.3282 0.2813 0.6153 0.6094 0.8614 0.9844 0.0703 0.0703 0.1054 0.1641 0.1054 0.2813zm12.674-3.5508c0 0.1992-0.0821 0.3925-0.2461 0.58-0.1524 0.1875-0.3399 0.3692-0.5625 0.545-0.2227 0.1758-0.4512 0.3398-0.6856 0.4922-0.2344 0.1406-0.4277 0.2578-0.5801 0.3515-0.3984 0.2578-0.7968 0.4981-1.1953 0.7207-0.3867 0.2227-0.791 0.416-1.2129 0.5801-0.4101 0.1641-0.8379 0.293-1.2832 0.3867-0.4336 0.0938-0.8906 0.1406-1.3711 0.1406l-0.2812 0.0352c-0.3867 0-0.7734-0.041-1.1602-0.123-0.375-0.0938-0.7265-0.2286-1.0546-0.4043-0.3282-0.1875-0.6211-0.4219-0.879-0.7032-0.2578-0.2812-0.457-0.6211-0.5976-1.0195-0.1055-0.3164-0.1875-0.6914-0.2461-1.125s-0.1055-0.8848-0.1406-1.3535c-0.0235-0.4688-0.0469-0.9258-0.0703-1.3711-0.0118-0.457-0.0235-0.8613-0.0352-1.2129-0.1758-3.5859-0.3164-7.1719-0.4219-10.758-0.0234-0.41016-0.041-0.82032-0.0527-1.2305-0.0117-0.41016-0.0176-0.82031-0.0176-1.2305 0-0.70313 0.041-1.3008 0.1231-1.793 0.082-0.49219 0.2461-0.89648 0.4921-1.2129 0.2461-0.31641 0.5977-0.54492 1.0547-0.68555 0.4688-0.14062 1.084-0.21093 1.8457-0.21093 0.7618 0 1.5235 0.00586 2.2852 0.01757 0.7734 0.01172 1.5469 0.01758 2.3203 0.01758 0.2344 0 0.4688-0.00586 0.7031-0.01758 0.2344-0.02343 0.4688-0.00585 0.7032 0.05274 0.1406 0.02344 0.2636 0.06445 0.3691 0.12305 0.1055 0.04687 0.1582 0.1582 0.1582 0.33398 0 0.42187-0.1406 0.73828-0.4219 0.94922-0.2812 0.19922-0.6152 0.33398-1.0019 0.4043-0.3867 0.07031-0.791 0.10546-1.2129 0.10546-0.4102-0.01171-0.75-0.01757-1.0196-0.01757h-2.2851-0.7031c-0.2344 0-0.4688 0.01172-0.7032 0.03515-0.0703 0.17578-0.1171 0.35742-0.1406 0.54492-0.0234 0.1875-0.0351 0.38086-0.0351 0.58008 0 1.2774 0.0293 2.5371 0.0879 3.7793 0.0703 1.2422 0.1347 2.502 0.1933 3.7793 0.7266-0.0586 1.4473-0.1289 2.1621-0.2109 0.7149-0.0821 1.4356-0.1758 2.1621-0.2813 0.1055 0 0.1993-0.0058 0.2813-0.0176 0.0937-0.0117 0.1875-0.0175 0.2812-0.0175 0.2461 0 0.416 0.0644 0.5098 0.1933 0.1055 0.1289 0.1582 0.3106 0.1582 0.5449 0 0.1641-0.0117 0.3164-0.0352 0.4571-0.0117 0.1406-0.0468 0.2812-0.1054 0.4219-0.0821 0.2343-0.2168 0.4042-0.4043 0.5097s-0.3985 0.1817-0.6328 0.2285c-0.2344 0.0352-0.4805 0.0528-0.7383 0.0528-0.2461 0-0.4629 0.0058-0.6504 0.0175-0.4922 0.0235-0.9785 0.0411-1.459 0.0528-0.4687 0.0117-0.9434 0.0293-1.4238 0.0527 0.0117 0.2461 0.0293 0.6152 0.0527 1.1074 0.0235 0.4922 0.0469 1.0489 0.0703 1.67 0.0352 0.6093 0.0703 1.2421 0.1055 1.8984 0.0469 0.6562 0.0937 1.2773 0.1406 1.8633 0.0469 0.5742 0.0996 1.0781 0.1582 1.5117s0.1172 0.7266 0.1758 0.8789c0.1289 0.2461 0.2754 0.4102 0.4395 0.4922 0.164 0.0703 0.3808 0.1055 0.6504 0.1055 0.4335 0 0.8906-0.0821 1.371-0.2461 0.4805-0.1758 0.9493-0.3926 1.4063-0.6504 0.457-0.2696 0.8906-0.5625 1.3008-0.8789 0.4219-0.3164 0.7851-0.627 1.0898-0.9317 0.1289-0.1054 0.2578-0.2109 0.3867-0.3164 0.1289-0.1172 0.2813-0.1758 0.4571-0.1758 0.1757 0 0.3457 0.0528 0.5097 0.1582 0.1641 0.1055 0.3106 0.2403 0.4395 0.4043 0.1289 0.1524 0.2285 0.3223 0.2988 0.5098 0.082 0.1875 0.1231 0.3574 0.1231 0.5098zm13.201-8.7539c0 1.2539-0.112 2.4902-0.334 3.7089-0.223 1.2071-0.592 2.3379-1.108 3.3926-0.5036 1.0547-1.1715 2.0156-2.0036 2.8828-0.832 0.8555-1.8515 1.5586-3.0586 2.1094-0.3047 0.1406-0.6386 0.2695-1.0019 0.3867-0.3516 0.1172-0.7207 0.2168-1.1074 0.2989-0.375 0.082-0.75 0.1464-1.125 0.1933s-0.7266 0.0703-1.0547 0.0703c-0.1289 0-0.2754-0.0058-0.4395-0.0175-0.1523 0-0.2988-0.0235-0.4394-0.0704-0.1407-0.0351-0.2579-0.0996-0.3516-0.1933-0.0938-0.0938-0.1406-0.2227-0.1406-0.3867 0-0.1407 0.0293-0.2871 0.0879-0.4395 0.0586-0.1523 0.1347-0.2988 0.2285-0.4394 0.1054-0.1407 0.2168-0.2637 0.334-0.3692 0.1171-0.1172 0.2402-0.2051 0.3691-0.2637-0.0586-0.0937-0.1172-0.3574-0.1758-0.791-0.0469-0.4336-0.0937-0.9843-0.1406-1.6523-0.0352-0.668-0.0703-1.4121-0.1055-2.2324-0.0351-0.8321-0.0703-1.6875-0.1054-2.5664-0.0235-0.879-0.0469-1.752-0.0704-2.6192-0.0117-0.8789-0.0234-1.6875-0.0351-2.4258-0.0117-0.7382-0.0234-1.3769-0.0352-1.916v-1.1953c0-1.1016 0.0176-2.1856 0.0528-3.252 0.0351-1.0664 0.0527-2.1504 0.0527-3.252-0.1289 0-0.2519-0.03516-0.3691-0.10547-0.1055-0.07031-0.1582-0.17578-0.1582-0.31641 0-0.1875 0.0468-0.35742 0.1406-0.50976 0.0937-0.16406 0.2109-0.30469 0.3515-0.42188 0.1524-0.11718 0.3165-0.20507 0.4922-0.26367 0.1875-0.07031 0.3633-0.10547 0.5274-0.10547 0.164 0 0.3222 0.01758 0.4746 0.05274 0.1523 0.02344 0.3105 0.05273 0.4746 0.08789 1.5586 0.375 2.9473 0.94336 4.166 1.7051 1.2188 0.76172 2.2383 1.6875 3.0586 2.7773 0.8321 1.0898 1.4651 2.3203 1.8981 3.6914 0.434 1.3711 0.651 2.8535 0.651 4.4473zm-2.6018-0.3164c0-1.1719-0.1407-2.2735-0.4219-3.3047-0.2813-1.043-0.7031-1.9922-1.2656-2.8477-0.5508-0.86718-1.2481-1.6289-2.0918-2.2852-0.8321-0.66797-1.7989-1.2188-2.9004-1.6524v0.07031c0 3.0234 0.0469 6.0235 0.1406 9 0.1055 2.9649 0.2578 5.9531 0.457 8.9649 0.0352 0.457 0.0645 0.914 0.0879 1.3711 0.0352 0.4453 0.0879 0.8906 0.1582 1.3359 1.1016-0.3633 2.0274-0.9258 2.7774-1.6875s1.3476-1.6289 1.7929-2.6016c0.4571-0.9843 0.7793-2.0273 0.9668-3.1289 0.1993-1.1132 0.2989-2.1914 0.2989-3.2343z" fill="white"/>
</svg>
